<svg width="24" height="24" viewBox="0 0 24 24" fill="none" xmlns="http://www.w3.org/2000/svg">
<path d="M3 3H4.37144C5.31982 3 6.13781 3.66607 6.32996 4.59479L8.67004 15.9052C8.86219 16.8339 9.68018 17.5 10.6286 17.5H17.5" stroke="white" stroke-width="1.5" stroke-linecap="round" stroke-linejoin="round"/>
<path d="M6.82422 7H19.6743C20.3386 7 20.8183 7.6359 20.6358 8.27472L19.6217 11.8242C19.2537 13.1121 18.0765 14 16.7371 14H8.27734" stroke="white" stroke-width="1.5" stroke-linecap="round" stroke-linejoin="round"/>
<path d="M16.5 21C16.7761 21 17 20.7761 17 20.5C17 20.2239 16.7761 20 16.5 20C16.2239 20 16 20.2239 16 20.5C16 20.7761 16.2239 21 16.5 21Z" fill="white" stroke="white" stroke-width="1.5" stroke-linecap="round" stroke-linejoin="round"/>
<path d="M10.5 20C10.7761 20 11 20.2239 11 20.5C11 20.7761 10.7761 21 10.5 21C10.2239 21 10 20.7761 10 20.5C10 20.2239 10.2239 20 10.5 20Z" fill="white" stroke="white" stroke-width="1.5" stroke-linecap="round" stroke-linejoin="round"/>
</svg>
